<svg width="201" height="201" viewBox="0 0 201 201" fill="none" xmlns="http://www.w3.org/2000/svg">
<circle cx="100.5" cy="100.5" r="100.5" fill="#2F80ED"/>
<path d="M168.598 58.2885C164.806 63.9299 160.153 68.7389 154.639 72.7156C154.694 73.7821 154.721 74.9875 154.721 76.3319C154.721 83.8014 153.632 91.2799 151.454 98.7675C149.276 106.255 145.949 113.422 141.473 120.268C136.997 127.115 131.665 133.18 125.478 138.464C119.291 143.748 111.853 147.962 103.166 151.104C94.4782 154.247 85.1674 155.818 75.2335 155.818C59.73 155.818 45.4528 151.632 32.4019 143.262C34.7182 143.519 36.9398 143.648 39.0667 143.648C52.0186 143.648 63.5868 139.659 73.7712 131.68C67.7322 131.57 62.3239 129.711 57.5462 126.103C52.7685 122.496 49.4806 117.887 47.6825 112.275C49.4598 112.614 51.214 112.783 52.945 112.783C55.4366 112.783 57.8883 112.458 60.3001 111.808C53.8555 110.518 48.5091 107.308 44.261 102.179C40.013 97.0497 37.889 91.13 37.889 84.4193V84.0735C41.8447 86.2637 46.0642 87.4288 50.5473 87.5686C46.7295 85.0235 43.7026 81.7045 41.4666 77.6117C39.2303 73.5189 38.1122 69.0898 38.1122 64.3243C38.1122 59.2983 39.3717 54.6182 41.8905 50.2839C48.899 58.8844 57.3912 65.7582 67.3671 70.9053C77.3432 76.0524 88.0457 78.911 99.4745 79.4809C98.987 77.4495 98.7428 75.3296 98.742 73.1211C98.742 65.4102 101.471 58.8263 106.928 53.3692C112.386 47.9121 118.97 45.1836 126.681 45.1836C134.754 45.1836 141.554 48.1232 147.081 54.0024C153.396 52.7515 159.309 50.4891 164.819 47.2151C162.696 53.8966 158.605 59.051 152.546 62.6782C158.115 62.0164 163.466 60.5532 168.598 58.2885H168.598Z" fill="white"/>
</svg>
