<svg width="263" height="249" viewBox="0 0 263 249" fill="none" xmlns="http://www.w3.org/2000/svg">
<ellipse cx="131.5" cy="124.5" rx="131.5" ry="124.5" fill="#2F80ED"/>
<path d="M96.7884 184.835V93.3561H64.6731V184.835H96.7884ZM80.7349 80.8587C91.9341 80.8587 98.9051 73.8342 98.9051 65.0558C98.6964 56.0796 91.9345 49.25 80.9474 49.25C69.9621 49.25 62.7783 56.0797 62.7783 65.0558C62.7783 73.8346 69.7476 80.8587 80.5253 80.8587H80.7349ZM114.564 184.835H146.68V133.749C146.68 131.015 146.888 128.284 147.736 126.329C150.058 120.866 155.342 115.209 164.214 115.209C175.835 115.209 180.484 123.598 180.484 135.895V184.835H212.597V132.381C212.597 104.282 196.753 91.2084 175.623 91.2084C158.299 91.2084 150.692 100.377 146.466 106.622H146.68V93.3542H114.565C114.986 101.938 114.565 184.833 114.565 184.833L114.564 184.835Z" fill="white"/>
</svg>
