<svg width="163" height="149" viewBox="0 0 163 149" fill="none" xmlns="http://www.w3.org/2000/svg">
<ellipse cx="81.5" cy="74.5" rx="81.5" ry="74.5" fill="#6FCF97"/>
<path d="M78.209 99.4434H72.1777L49.2715 64.3809V99.4434H43.2402V53.9434H49.2715L72.2402 89.1621V53.9434H78.209V99.4434ZM107.928 53.9434H113.959V86.1621C113.959 90.5163 112.646 93.9225 110.021 96.3809C107.417 98.8392 103.938 100.068 99.584 100.068C95.0632 100.068 91.5423 98.9121 89.0215 96.5996C86.5007 94.2871 85.2402 91.0475 85.2402 86.8809H91.2402C91.2402 89.485 91.9486 91.5163 93.3652 92.9746C94.8027 94.4329 96.8757 95.1621 99.584 95.1621C102.063 95.1621 104.063 94.3809 105.584 92.8184C107.126 91.2559 107.907 89.0684 107.928 86.2559V53.9434Z" fill="white"/>
</svg>
